name processed_emg_signals
nRows=91
nColumns=7
 
endheader
time	RGLTMED	RRF	RADDLONG	RBF	RTA	RGM
9.619999999999955	0.0393854444843293	0.0822345297995592	0.4864209208093	0.0705488617363174	0.0926938260888928	0.1217537055091678
9.629999999999955	0.0394591668537303	0.0826334756502476	0.4873465247303815	0.0707718245006622	0.0928845291007679	0.1218345487698339
9.639999999999954	0.0395267335355202	0.0830299218842291	0.488375380937779	0.0709960309712946	0.0930802298407155	0.121903515734921
9.649999999999954	0.0395881098118973	0.0834236347092339	0.4895075332679715	0.0712212838439538	0.0932806765751651	0.1219601599620844
9.659999999999954	0.0396432710101129	0.083814386679127	0.4907429515065354	0.0714473903157904	0.0934856180152928	0.1220040594287971
9.669999999999954	0.0396922025669276	0.0842019565592723	0.4920815292286796	0.0716741623203127	0.0936948033082707	0.1220348177031824
9.679999999999954	0.0397349000670264	0.0845861291715803	0.4935230816606336	0.0719014167222111	0.0939079820149527	0.1220520650275557
9.689999999999953	0.0397713692546955	0.0849666952221648	0.4950673435750936	0.0721289754714865	0.0941249040753024	0.1220554593086431
9.699999999999953	0.0398016260183441	0.0853434511144602	0.496713967235162	0.0723566657165585	0.0943453197631049	0.1220446870087423
9.709999999999953	0.0398256963477498	0.0857161987505787	0.498462520402031	0.0725843198764379	0.0945689796317804	0.122019463932492
9.719999999999953	0.0398436162641636	0.086084745323561	0.5003124844222621	0.0728117756726631	0.0947956344534298	0.1219795359045911
9.729999999999952	0.0398554317235723	0.08644890310312	0.502263252411097	0.0730388761223461	0.0950250351534985	0.1219246793347957
9.739999999999952	0.0398611984935242	0.0868084892174081	0.5043141275485842	0.0732654694942802	0.0952569327436447	0.1218547016677337
9.749999999999952	0.0398609820040229	0.0871633254332409	0.5064643215053359	0.0734914092304297	0.0954910782554288	0.1217694417164024
9.759999999999952	0.0398548571730671	0.087513237937071	0.5087129530145174	0.0737165538353416	0.0957272226773571	0.1216687698795001
9.769999999999952	0.0398429082074905	0.0878580571189058	0.5110590466061261	0.0739407667361231	0.0959651168976348	0.1215525882438778
9.779999999999951	0.0398252283798009	0.0881976173612103	0.5135015315187417	0.0741639161157168	0.0962045116547984	0.1214208305742796
9.789999999999951	0.0398019197817358	0.08853175683475	0.5160392408027626	0.074385874722337	0.0964451574982428	0.1212734621933753
9.799999999999951	0.0397730930553268	0.0888603173031524	0.5186709106278327	0.0746065196580063	0.0966868047604783	0.1211104797560449
9.80999999999995	0.039738867102367	0.0891831439377873	0.521395179805819	0.0748257321491208	0.0969292035428354	0.1209319109229616
9.81999999999995	0.0396993687733126	0.0895000851443262	0.5242105895392233	0.0750433973018487	0.0971721037161536	0.1207378139394382
9.82999999999995	0.0396547325367753	0.0898109924020963	0.5271155834033111	0.0752594038450692	0.0974152549378867	0.1205282771260984
9.83999999999995	0.0396051001308599	0.090115720117143	0.5301085075684843	0.0754736438635042	0.0976584066869154	0.1203034182881545
9.84999999999995	0.0395506201976949	0.0904141254897861	0.5331876112675611	0.0756860125237028	0.0979013083173237	0.1200633840501182
9.85999999999995	0.0394914479025547	0.0907060683973211	0.5363510475107268	0.075896407795539	0.0981437091323056	0.119808349122633
9.86999999999995	0.0394277445390454	0.090991411292515	0.5395968740491135	0.0761047301718742	0.0983853584792283	0.1195385155078783
9.87999999999995	0.0393596771218508	0.091270019118573	0.5429230545863108	0.0763108823889743	0.0986260058667108	0.119254111649661
9.889999999999949	0.0392874179686073	0.0915417592413699	0.5463274602356172	0.07651476915019	0.0988654011044155	0.1189553915338973
9.899999999999949	0.0392111442725116	0.0918065013998132	0.5498078712195579	0.076716296855244	0.0991032944661864	0.1186426337447976
9.909999999999949	0.0391310376672477	0.0920641176751136	0.5533619788075111	0.0769153733373038	0.0993394368771221	0.1183161404817413
9.919999999999948	0.0390472837858506	0.0923144824796238	0.5569873874874736	0.0771119076097763	0.0995735801251506	0.1179762365415868
9.929999999999948	0.0389600718151106	0.0925574725656628	0.5606816173691801	0.0773058096245465	0.099805477097559	0.117623268271038
9.939999999999948	0.0388695940471785	0.0927929670545037	0.5644421068175993	0.0774969900431382	0.1000348820427933	0.11725760249353
9.949999999999948	0.0387760454300032	0.0930208474854162	0.5682662153176983	0.0776853600220416	0.100261550857633	0.1168796254149638
9.959999999999948	0.0386796231182094	0.093240997884366	0.5721512265728123	0.0778708310132406	0.1004852413996746	0.1164897415124082
9.969999999999947	0.0385805260259128	0.0934533048516985	0.5760943518396242	0.0780533145807576	0.1007057138248518	0.1160883724097044
9.979999999999947	0.0384789543828717	0.093657657667957	0.580092733502836	0.0782327222338019	0.100922730949557	0.1156759557437497
9.989999999999947	0.038375109295254	0.0938539484168426	0.5841434488922634	0.0784089652769424	0.101136058636743	0.1152529440251137
9.999999999999947	0.0382691923122083	0.0940420721242676	0.5882435143443362	0.0785819546775389	0.1013454662051974	0.1148198034964662
10.009999999999946	0.0381614049993508	0.0942219269124111	0.5923898895087734	0.0787516009506101	0.1015507268609194	0.114377012992135
10.019999999999946	0.0380519485202229	0.0943934141676362	0.5965794818997958	0.0789178140612961	0.1017516181493175	0.1139250628018996
10.029999999999946	0.0379410232266912	0.094556438721066	0.6008091516897285	0.0790805033450708	0.1019479224266714	0.1134644535419339
10.039999999999946	0.0378288282592076	0.0947109090405498	0.605075716741209	0.0792395774459089	0.1021394273491275	0.1129956950355517
10.049999999999946	0.0377155611577745	0.0948567374326874	0.6093759578724516	0.0793949442726495	0.1023259263772758	0.112519305206171
10.059999999999945	0.0376014174844214	0.0949938402535931	0.613706624348118	0.0795465109738885	0.1025072192941481	0.1120358089846133
10.069999999999945	0.0374865904579729	0.0951221381270669	0.6180644395864628	0.0796941839318367	0.1026831127341991	0.111545737232657
10.079999999999945	0.0373712706019091	0.0952415561688208	0.6224461070717113	0.0798378687756106	0.102853420720587	0.1110496256845895
10.089999999999945	0.0372556454061136	0.0953520242153511	0.6268483164590807	0.0799774704144278	0.1030179652077576	0.1105480139084468
10.099999999999945	0.0371398990032905	0.0954534770559977	0.6312677498585282	0.0801128930911417	0.1031765766260665	0.1100414442886198
10.109999999999944	0.0370242118607765	0.0955458546666985	0.6357010882820867	0.0802440404565101	0.1033290944248773	0.1095304610314484
10.119999999999944	0.0369087604883983	0.0956291024439665	0.6401450182384456	0.0803708156644988	0.1034753676103092	0.1090156091953123
10.129999999999944	0.036793717162939	0.0957031714376284	0.6445962384572202	0.0804931214888512	0.1036152552735042	0.108497433746632
10.139999999999944	0.036679249669689	0.0957680185809932	0.6490514667241298	0.0806108604610275	0.1037486271050451	0.1079764786431821
10.149999999999944	0.0365655210614613	0.0958236069172059	0.653507446807353	0.0807239350294824	0.1038753638909133	0.1074532859461034
10.159999999999943	0.0364526894353629	0.0958699058207057	0.6579609554546435	0.0808322477401013	0.1039953579852869	0.1069283949620443
10.169999999999943	0.0363409077275725	0.0959068912127953	0.6624088094403656	0.0809357014374214	0.1041085137555319	0.1064023414168628
10.179999999999943	0.0362303235263153	0.0959345457704133	0.6668478726411762	0.08103419948605	0.1042147479950144	0.105875656662317
10.189999999999943	0.0361210789031961	0.0959528591273314	0.6712750631185588	0.0811276460114672	0.104313990299815	0.1053488669171084
10.199999999999942	0.0360133102629866	0.0959618280671777	0.6756873601857213	0.0812159461592183	0.1044061834059583	0.1048224925435998
10.209999999999942	0.0359071482119135	0.0959614567078842	0.6800818114354397	0.0812990063714094	0.104491283484263	0.1042970473614947
10.219999999999942	0.0358027174443947	0.0959517566772437	0.6844555397045375	0.0813767346793835	0.1045692603902173	0.1037730379996653
10.229999999999942	0.0357001366481079	0.0959327472793922	0.6888057499500015	0.0814490410114698	0.1046400978664625	0.1032509632872315
10.239999999999942	0.0355995184271918	0.0959044556520826	0.6931297360113052	0.0815158375146531	0.1047037936956609	0.1027313136847272
10.249999999999941	0.0355009692433293	0.0958669169147383	0.697424887232808	0.0815770388888957	0.104760359801896	0.1022145707559222
10.259999999999941	0.0354045893744365	0.0958201743072255	0.7016886949189144	0.0816325627326628	0.104809822299534	0.1017012066805287
10.269999999999941	0.0353104728906735	0.0957642793192145	0.7059187585932302	0.0816823298979829	0.1048522214894489	0.101191683807735
10.27999999999994	0.0352187076474952	0.0956992918098389	0.710112792031953	0.081726264853139	0.1048876118034993	0.1006864542502236
10.28999999999994	0.0351293752954696	0.0956252801172004	0.7142686290411477	0.0817642960508755	0.1049160616988194	0.1001859595181358
10.29999999999994	0.0350425513065792	0.0955423211571175	0.7183842289470705	0.0817963562998684	0.1049376535038935	0.0996906301922346
10.30999999999994	0.0349583050166645	0.0954505005104025	0.722457681768126	0.0818223831371055	0.1049524832185522	0.0992008856354458
10.31999999999994	0.0348766996836203	0.0953499124978612	0.7264872130366122	0.0818423191988244	0.1049606602701851	0.0987171337418968
10.32999999999994	0.0347977925608312	0.095240660242184	0.7304711882382894	0.0818561125877107	0.1049623072285554	0.0982397707225669
10.33999999999994	0.034721634985281	0.0951228557158433	0.7344081168378633	0.0818637172341872	0.1049575594817168	0.0977691809265644
10.34999999999994	0.0346482724796428	0.0949966197741723	0.7382966558586761	0.0818650932497957	0.1049465648755851	0.097305736696908
10.359999999999939	0.0345777448675818	0.094862082172928	0.742135612985356	0.0818602072708083	0.1049294833196947	0.0968497982594658
10.369999999999939	0.0345100864013771	0.094719381569898	0.7459239491587215	0.081849032790328	0.1049064863615497	0.0964017136434684
10.379999999999939	0.0344453259008947	0.0945686655102708	0.7496607806328766	0.0818315504772094	0.1048777567317916	0.095961818631776
10.389999999999938	0.0343834869028234	0.0944100903955401	0.7533453804658706	0.081807748480195	0.1048434878621535	0.0955304367388716
10.399999999999938	0.0343245878190386	0.0942438214355963	0.7569771794183291	0.0817776227156294	0.1048038833778898	0.0951078792144464
10.409999999999938	0.0342686421029233	0.0940700325834836	0.7605557662390081	0.0817411771370676	0.1047591565660311	0.0946944450703887
10.419999999999938	0.0342156584224816	0.0938889064521531	0.7640808873218451	0.0816984239850434	0.1047095298205076	0.094290421128983
10.429999999999938	0.0341656408391926	0.0937006342123428	0.7675524457251635	0.0816493840152098	0.1046552340648646	0.0938960820900557
10.439999999999937	0.0341185889916094	0.0935054154706119	0.7709704995494033	0.0815940867031347	0.1045965081530809	0.0935116906146966
10.449999999999937	0.034074498282823	0.0933034581264259	0.7743352596744394	0.0815325704241046	0.1045335982489946	0.0931374974229572
10.459999999999937	0.0340333600709113	0.0930949782070936	0.7776470868611575	0.0814648826064357	0.1044667571850603	0.0927737414027497
10.469999999999937	0.0339951618615093	0.0928801996792445	0.7809064882247212	0.0813910798568278	0.1043962438014614	0.092420649726891
10.479999999999936	0.0339598875016178	0.0926593542353959	0.7841141130888281	0.0813112280563089	0.1043223222668749	0.0920784379750373
10.489999999999936	0.0339275173737818	0.0924326810540772	0.7872707482318683	0.0812254024252679	0.1042452613823271	0.0917473102570817
10.499999999999936	0.0338980285897385	0.0922004265320005	0.7903773125379557	0.0811336875561224	0.1041653338696909	0.0914274593345231
10.509999999999936	0.0338713951826443	0.0919628439869061	0.7934348510692731	0.0810361774121829	0.1040828156465125	0.0911190667363176
10.519999999999936	0.0338475882970115	0.0917201933299691	0.7964445285815777	0.0809329752913897	0.1039979850889195	0.090822302865761
